<svg xmlns="http://www.w3.org/2000/svg" viewBox="0 0 512 512" width="100%" height="100%">
  <defs>
    <linearGradient id="bgGrad" x1="0%" y1="0%" x2="100%" y2="100%">
      <stop offset="0%" stop-color="#F3F3F4" />
      <stop offset="100%" stop-color="#EAEAEA" />
    </linearGradient>

    <linearGradient id="vsLeftGrad" x1="0%" y1="0%" x2="100%" y2="100%">
      <stop offset="0%" stop-color="#2374E1" />
      <stop offset="100%" stop-color="#1A56B1" />
    </linearGradient>

    <linearGradient id="vsRightGrad" x1="0%" y1="0%" x2="100%" y2="100%">
      <stop offset="0%" stop-color="#4096FF" />
      <stop offset="100%" stop-color="#0066E0" />
    </linearGradient>

    <linearGradient id="accentGrad" x1="0%" y1="0%" x2="0%" y2="100%">
      <stop offset="0%" stop-color="#FFFFFF" stop-opacity="0.8" />
      <stop offset="100%" stop-color="#FFFFFF" stop-opacity="0.2" />
    </linearGradient>

    <filter id="dropShadow" x="-10%" y="-10%" width="130%" height="130%">
      <feDropShadow dx="0" dy="12" stdDeviation="16" flood-color="#001533" flood-opacity="0.08" />
      <feDropShadow dx="0" dy="4" stdDeviation="4" flood-color="#000000" flood-opacity="0.04" />
    </filter>
    
    <filter id="iconShadow" x="-20%" y="-20%" width="140%" height="140%">
      <feDropShadow dx="0" dy="6" stdDeviation="8" flood-color="#002D72" flood-opacity="0.12" />
    </filter>
  </defs>

  <rect width="456" height="456" x="28" y="28" rx="104" fill="url(#bgGrad)" filter="url(#dropShadow)" stroke="url(#accentGrad)" stroke-width="2" />

  <rect width="452" height="452" x="30" y="30" rx="102" fill="none" stroke="#E2E8F0" stroke-width="1" />

  <g opacity="0.4">
    <circle cx="80" cy="75" r="5" fill="#94A3B8" />
    <circle cx="100" cy="75" r="5" fill="#94A3B8" />
    <circle cx="120" cy="75" r="5" fill="#94A3B8" />
    
    <rect x="80" y="415" width="60" height="8" rx="4" fill="#CBD5E1" />
    <rect x="150" y="415" width="100" height="8" rx="4" fill="#E2E8F0" />
    <rect x="360" y="71" width="72" height="8" rx="4" fill="#CBD5E1" />
  </g>

  <g filter="url(#iconShadow)">
    <path d="M342.4 126.3L126.5 284.8L64 238.1L342.4 28.5V126.3Z" fill="url(#vsLeftGrad)" />
    
    <path d="M342.4 385.7L126.5 227.2L64 273.9L342.4 483.5V385.7Z" fill="url(#vsLeftGrad)" />
    
    <path d="M126.5 227.2L204.8 256L126.5 284.8V227.2Z" fill="#164A9C" />
    
    <path d="M342.4 126.3L448 214.4V297.6L342.4 385.7V126.3Z" fill="url(#vsRightGrad)" />
  </g>

  <ellipse cx="390" cy="180" rx="40" ry="20" fill="#FFFFFF" opacity="0.12" transform="rotate(-35, 390, 180)" />
</svg>
